<svg width="111" height="106" viewBox="0 0 111 106" fill="none" xmlns="http://www.w3.org/2000/svg">
<path d="M75.7 37C77.4 40.6 78.3 44.1 79.2 48.5C97.7 53 110.1 63.5 110.3 75.2C110.3 92 85.6 105.2 55.6 105.2C24.7 105.2 0 91.8999 0 75.2C0 63.7999 12.4 53.1999 30.9 48.7999C30.9 53.1999 31.8 57.6 34.4 62L52 92C52.8 93.7 53.7 96.4 54.6 99L55.5 97.2C59 90.1 59 81.2999 55.5 73.3999L41.4 49.6C37 41.7 37 32.7999 41.4 25.7999L42.3 24C42.3 26.6 43.1 29.2999 44.9 31.8999L52.8 45.1L65.2 67.1C66.9 69.7 67.8 72.4 67.8 75L68.7 73.2C73.1 66.1 73.1 56.3999 68.7 49.3999L55.5 25.6C51.1 17.7 51.1 8.79993 55.5 1.79993V0C56.3 2.6 57.2 5.2 58.1 7L75.7 37Z" fill="#E41513"/>
</svg>
