<svg width="83" height="73" viewBox="0 0 83 73" fill="none" xmlns="http://www.w3.org/2000/svg">
<path d="M44.0054 0H46.9731C54.7945 0.443212 62.6162 2.97214 68.7042 7.9622C75.2388 13.1504 79.9822 20.5703 81.6211 28.7411C83.3911 36.599 82.3302 44.9993 78.9263 52.2834C74.6243 61.1947 66.561 68.3279 57.0164 71.2269C53.7859 72.2542 50.4136 72.713 47.0413 73H44.2311C41.7306 72.7079 39.2199 72.4369 36.7826 71.8111C29.1291 70.0067 22.2794 65.4602 17.347 59.422C12.215 53.2482 9.53073 45.3173 9.20508 37.3655C10.2399 37.6366 11.2799 37.8765 12.3253 38.0955C12.9241 45.9481 15.9182 53.7437 21.5178 59.4271C27.4377 65.7832 35.9946 69.5687 44.7039 69.7932C52.8459 70.085 61.1137 67.3842 67.328 62.1177C72.812 57.5969 76.8147 51.2979 78.4008 44.3838C80.6385 35.2277 78.8318 25.1276 73.3687 17.4C69.0981 11.3775 62.8313 6.70033 55.6825 4.61984C46.8313 1.96057 36.8666 2.95649 28.9033 7.71191C28.1154 6.96106 27.3221 6.2154 26.529 5.47499C31.7766 2.21085 37.8489 0.432786 44.0054 0Z" fill="white"/>
<path d="M10.7967 5.53238C16.9898 3.61352 24.202 6.1529 27.7266 11.5705C31.2618 16.7483 31.057 24.0952 27.2224 29.0644C23.7187 33.7833 17.2472 36.0933 11.5321 34.5863C5.19713 33.1941 0.29624 27.2864 0.0441029 20.8624C-0.507446 14.0838 4.17283 7.33651 10.7967 5.53238ZM11.779 8.59318C6.6732 9.96975 2.91216 15.0954 3.26936 20.3566C3.24834 25.5604 7.27726 30.4201 12.3936 31.489C16.8847 32.631 21.9275 30.806 24.6642 27.0986C28.0366 22.7864 27.7949 16.1591 24.0812 12.1232C21.1396 8.68703 16.1126 7.28958 11.779 8.59318Z" fill="white"/>
</svg>
