<svg width="302" height="60" viewBox="0 0 302 60" fill="none" xmlns="http://www.w3.org/2000/svg">
<g clip-path="url(#clip0_137_2)">
<path d="M11.9305 30C11.9305 24.1506 13.7838 19.4595 17.4903 15.9846C21.2548 12.4517 25.8301 10.7143 31.2162 10.7143C35.0386 10.7143 38.5714 11.5251 41.8147 13.2046C45 14.8842 47.5483 17.027 49.4595 19.6911V6.25483C44.7104 2.08494 38.6293 0 31.2162 0C22.0077 0 14.5367 2.77992 8.68726 8.28185C2.89575 13.7838 0 21.0232 0 30C0 38.9768 2.89575 46.2162 8.68726 51.7181C14.5367 57.2201 22.0077 60 31.2162 60C38.6293 60 44.7104 57.9151 49.4595 53.7452V40.3089C47.5483 42.973 45 45.1158 41.8147 46.7954C38.5714 48.4749 35.0386 49.2857 31.2162 49.2857C25.8301 49.2857 21.2548 47.5483 17.4903 44.0154C13.7838 40.5405 11.9305 35.8494 11.9305 30ZM55.9459 39.7297C55.9459 45.8687 58.0888 50.7336 62.3166 54.2664C66.5444 57.7992 71.6988 59.5946 77.6641 59.5946C83.6873 59.5946 88.7838 57.7992 93.0116 54.2664C97.2973 50.7336 99.3822 45.8687 99.3822 39.7297C99.3822 33.5907 97.2973 28.7259 93.0116 25.193C88.7838 21.6602 83.6873 19.8649 77.6641 19.8649C71.6988 19.8649 66.5444 21.6602 62.3166 25.193C58.0888 28.7259 55.9459 33.5907 55.9459 39.7297ZM66.9498 39.7297C66.9498 36.6023 67.9344 34.0541 69.9035 32.0849C71.8147 30.1737 74.4208 29.1892 77.6641 29.1892C80.9073 29.1892 83.5135 30.1737 85.4826 32.0849C87.3938 34.0541 88.3784 36.6023 88.3784 39.7297C88.3784 42.8571 87.3938 45.4054 85.4826 47.3745C83.5135 49.2857 80.9073 50.2703 77.6641 50.2703C74.4208 50.2703 71.8147 49.2857 69.9035 47.3745C67.9344 45.4054 66.9498 42.8571 66.9498 39.7297ZM116.815 36.4865C116.815 33.9382 117.625 32.027 119.189 30.695C120.753 29.3629 122.722 28.7259 125.097 28.7259C127.181 28.7259 128.687 29.2471 129.614 30.3475C130.541 31.4479 131.004 33.2432 131.004 35.6757V58.3784H141.95V33.2432C141.95 29.2471 140.791 26.0618 138.475 23.6873C136.158 21.3707 133.031 20.2124 129.151 20.2124C123.591 20.2124 119.479 22.529 116.815 27.2201V21.0811H105.869V58.3784H116.815V36.4865ZM162.625 36.4865C162.625 33.9382 163.436 32.027 165 30.695C166.564 29.3629 168.533 28.7259 170.907 28.7259C172.992 28.7259 174.498 29.2471 175.425 30.3475C176.351 31.4479 176.815 33.2432 176.815 35.6757V58.3784H187.761V33.2432C187.761 29.2471 186.602 26.0618 184.286 23.6873C181.969 21.3707 178.842 20.2124 174.961 20.2124C169.402 20.2124 165.29 22.529 162.625 27.2201V21.0811H151.68V58.3784H162.625V36.4865ZM223.726 35.3282H205.598C206.062 33.0116 207.162 31.2162 209.015 29.9421C210.869 28.61 212.896 27.973 215.212 27.973C220.135 27.973 222.973 30.4054 223.726 35.3282ZM205.541 42.5676H235.077C235.135 41.5251 235.193 40.3668 235.193 38.9768C235.193 33.1853 233.398 28.4942 229.807 25.0772C226.158 21.6023 221.293 19.8649 215.212 19.8649C208.958 19.8649 203.919 21.7181 200.097 25.4826C196.216 29.2471 194.247 33.9961 194.247 39.7297C194.247 45.5212 196.1 50.2124 199.807 53.8031C203.513 57.3938 208.668 59.1892 215.212 59.1892C224.652 59.1892 231.139 55.4826 234.73 48.0695L224.363 45.7529C222.683 49.0541 219.614 50.6757 215.212 50.6757C209.652 50.6757 206.467 47.9537 205.541 42.5676ZM250.309 39.7297C250.309 36.5444 251.351 34.112 253.436 32.3745C255.521 30.695 258.301 29.8263 261.834 29.8263C264.324 29.8263 266.815 30.4054 269.131 31.5058C271.506 32.6062 273.127 33.8803 273.996 35.3282V23.0502C270.405 20.9073 266.062 19.8649 261.023 19.8649C254.305 19.8649 248.919 21.6602 244.923 25.251C240.869 28.8417 238.842 33.6486 238.842 39.7297C238.842 45.8108 240.869 50.6178 244.923 54.2085C248.919 57.7992 254.305 59.5946 261.023 59.5946C266.757 59.5946 271.042 58.5521 273.996 56.4093V44.0154C273.069 45.5791 271.506 46.9112 269.305 48.0116C267.104 49.0541 264.614 49.6332 261.834 49.6332C258.301 49.6332 255.521 48.7645 253.436 47.0849C251.351 45.3475 250.309 42.9151 250.309 39.7297ZM284.537 8.10811V21.0811H278.456V30.4054H284.537V58.3784H295.483V30.4054H301.564V21.0811H295.483V8.10811H284.537Z" fill="#929BA5"/>
</g>
<defs>
<clipPath id="clip0_137_2">
<rect width="301.564" height="60" fill="white"/>
</clipPath>
</defs>
</svg>
