<svg data-v-fde0c5aa="" xmlns="http://www.w3.org/2000/svg" viewBox="0 0 300 300" class="iconLeft"><!----><defs data-v-fde0c5aa=""><!----></defs><rect data-v-fde0c5aa="" fill="transparent" x="0" y="0" width="300px" height="300px" class="logo-background-square"></rect><defs data-v-fde0c5aa=""><!----></defs><g data-v-fde0c5aa="" id="c0cf6630-5f50-4ae1-a966-af839154827b" fill="#000000" transform="matrix(5.897435833342073,0,0,5.897435833342073,136.3307709333616,98.92820517707668)"><path d="M3.93 13.50C5.89 7.25 6.29 5.91 6.54 5.01C6.79 5.92 7.18 7.25 9.13 13.50L10.04 13.50L12.68 3.82L11.70 3.82C10.02 10.08 9.77 11.07 9.55 12.10C9.24 11.03 8.96 10.08 7 3.82L6.10 3.82C4.16 10.07 3.86 11.03 3.56 12.11C3.32 11.00 3.08 10.09 1.39 3.82L0.39 3.82L3.02 13.50ZM15.05 13.50L15.05 9.76L17.00 9.76C17.88 9.76 18.76 9.67 19.29 9.46C20.37 9.06 20.97 8.09 20.97 6.75C20.97 5.40 20.36 4.24 19.04 3.98C18.66 3.91 17.78 3.82 17.05 3.82L14.17 3.82L14.17 13.50ZM15.05 8.90L15.05 4.68L17.05 4.68C17.49 4.68 18.17 4.70 18.52 4.76C19.45 4.93 19.99 5.74 19.99 6.80C19.99 7.69 19.56 8.43 18.93 8.67C18.49 8.83 17.71 8.90 17.08 8.90Z"></path></g><defs data-v-fde0c5aa=""><linearGradient data-v-fde0c5aa="" gradientTransform="rotate(25)" id="489e2e24-6c38-4a03-8f4a-044c5f2fa102" x1="0%" y1="0%" x2="100%" y2="0%"><stop data-v-fde0c5aa="" offset="0%" stop-color="#000A68" stop-opacity="1"></stop><stop data-v-fde0c5aa="" offset="100%" stop-color="#00C4EE" stop-opacity="1"></stop></linearGradient></defs><g data-v-fde0c5aa="" id="c871ab5a-564d-48ff-951e-9d8f68746c26" stroke="none" fill="url(#489e2e24-6c38-4a03-8f4a-044c5f2fa102)" transform="matrix(2.675961593742462,0,0,2.675961593742462,40,107.1846145001206)"><path d="M16 32c8.837 0 16-7.163 16-16S24.837 0 16 0 0 7.163 0 16s7.163 16 16 16zM14.817 6.421h2v8.886h8.887v2H14.817V6.421zm-5.959.437h2v14.283h14.283v2H8.858V6.858z"></path></g><!----></svg>