<svg width="220.99999999999997" height="86" xmlns="http://www.w3.org/2000/svg" class="iconLeft">
 <g id="Layer_1">
  <title>Layer 1</title>
  <g>
   <!---->
   <defs transform="translate(-0.270325 -0.135162) translate(0.316339 0) translate(-1.89804 -2.84705) translate(-43 1) translate(1 -3) translate(0 4) translate(-4 6) translate(3 -11) translate(5 -51) translate(0 -50)">
    <!---->
   </defs>
   <rect class="logo-background-square" height="300" width="300" y="-106.98222" x="-39.85202" fill="transparent"/>
   <defs transform="translate(-0.270325 -0.135162) translate(0.316339 0) translate(-1.89804 -2.84705) translate(-43 1) translate(1 -3) translate(0 4) translate(-4 6) translate(3 -11) translate(5 -51) translate(0 -50)">
    <!---->
   </defs>
   <g transform="matrix(5.89744 0 0 5.89744 136.331 98.9282)" fill="#000000" id="svg_3">
    <path d="m-2.82752,-4.64046c1.96,-6.25 2.36,-7.59 2.61,-8.49c0.25,0.91 0.64,2.24 2.59,8.49l0.91,0l2.64,-9.68l-0.98,0c-1.68,6.26 -1.93,7.25 -2.15,8.28c-0.31,-1.07 -0.59,-2.02 -2.55,-8.28l-0.9,0c-1.94,6.25 -2.24,7.21 -2.54,8.29c-0.24,-1.11 -0.48,-2.02 -2.17,-8.29l-1,0l2.63,9.68l0.91,0zm11.12,0l0,-3.74l1.95,0c0.88,0 1.76,-0.09 2.29,-0.3c1.08,-0.4 1.68,-1.37 1.68,-2.71c0,-1.35 -0.61,-2.51 -1.93,-2.77c-0.38,-0.07 -1.26,-0.16 -1.99,-0.16l-2.88,0l0,9.68l0.88,0zm0,-4.6l0,-4.22l2,0c0.44,0 1.12,0.02 1.47,0.08c0.93,0.17 1.47,0.98 1.47,2.04c0,0.89 -0.43,1.63 -1.06,1.87c-0.44,0.16 -1.22,0.23 -1.85,0.23l-2.03,0z"/>
   </g>

   <g transform="matrix(2.67596 0 0 2.67596 40 107.185)" fill="url(#svg_2)" id="svg_1">
    <path d="m1.1074,-7.97898c8.837,0 16,-7.163 16,-16s-7.163,-16 -16,-16s-16,7.163 -16,16s7.163,16 16,16zm-1.183,-25.579l2,0l0,8.886l8.887,0l0,2l-10.887,0l0,-10.886zm-5.959,0.437l2,0l0,14.283l14.283,0l0,2l-16.283,0l0,-16.283z"/>
   </g>
   <!---->
  </g>
 </g>
 <defs>
  <linearGradient y2="0%" x2="100%" y1="0%" x1="0%" id="svg_2" gradientTransform="rotate(25)">
   <stop stop-color="#000A68" offset="0%"/>
   <stop stop-color="#00C4EE" offset="100%"/>
  </linearGradient>
 </defs>
</svg>