<svg data-v-423bf9ae="" xmlns="http://www.w3.org/2000/svg" viewBox="0 0 301.5636870298828 60" class="font"><!----><!----><defs data-v-423bf9ae=""><linearGradient data-v-423bf9ae="" gradientTransform="rotate(25)" id="4eafaac4-1f06-4ab6-acb7-3291a301557b" x1="0%" y1="0%" x2="100%" y2="0%"><stop data-v-423bf9ae="" offset="0%" style="stop-color: rgb(2, 0, 151); stop-opacity: 1;"></stop><stop data-v-423bf9ae="" offset="100%" style="stop-color: rgb(31, 195, 218); stop-opacity: 1;"></stop></linearGradient></defs><g data-v-423bf9ae="" id="848000e6-0e48-408b-a466-06b61e3b7faa" fill="url(#4eafaac4-1f06-4ab6-acb7-3291a301557b)" transform="matrix(5.791505450303629,0,0,5.791505450303629,-2.027027732830959,-14.5945941011381)"><path d="M2.41 7.70C2.41 6.69 2.73 5.88 3.37 5.28C4.02 4.67 4.81 4.37 5.74 4.37C6.40 4.37 7.01 4.51 7.57 4.80C8.12 5.09 8.56 5.46 8.89 5.92L8.89 3.60C8.07 2.88 7.02 2.52 5.74 2.52C4.15 2.52 2.86 3.00 1.85 3.95C0.85 4.90 0.35 6.15 0.35 7.70C0.35 9.25 0.85 10.50 1.85 11.45C2.86 12.40 4.15 12.88 5.74 12.88C7.02 12.88 8.07 12.52 8.89 11.80L8.89 9.48C8.56 9.94 8.12 10.31 7.57 10.60C7.01 10.89 6.40 11.03 5.74 11.03C4.81 11.03 4.02 10.73 3.37 10.12C2.73 9.52 2.41 8.71 2.41 7.70ZM10.01 9.38C10.01 10.44 10.38 11.28 11.11 11.89C11.84 12.50 12.73 12.81 13.76 12.81C14.80 12.81 15.68 12.50 16.41 11.89C17.15 11.28 17.51 10.44 17.51 9.38C17.51 8.32 17.15 7.48 16.41 6.87C15.68 6.26 14.80 5.95 13.76 5.95C12.73 5.95 11.84 6.26 11.11 6.87C10.38 7.48 10.01 8.32 10.01 9.38ZM11.91 9.38C11.91 8.84 12.08 8.40 12.42 8.06C12.75 7.73 13.20 7.56 13.76 7.56C14.32 7.56 14.77 7.73 15.11 8.06C15.44 8.40 15.61 8.84 15.61 9.38C15.61 9.92 15.44 10.36 15.11 10.70C14.77 11.03 14.32 11.20 13.76 11.20C13.20 11.20 12.75 11.03 12.42 10.70C12.08 10.36 11.91 9.92 11.91 9.38ZM20.52 8.82C20.52 8.38 20.66 8.05 20.93 7.82C21.20 7.59 21.54 7.48 21.95 7.48C22.31 7.48 22.57 7.57 22.73 7.76C22.89 7.95 22.97 8.26 22.97 8.68L22.97 12.60L24.86 12.60L24.86 8.26C24.86 7.57 24.66 7.02 24.26 6.61C23.86 6.21 23.32 6.01 22.65 6.01C21.69 6.01 20.98 6.41 20.52 7.22L20.52 6.16L18.63 6.16L18.63 12.60L20.52 12.60ZM28.43 8.82C28.43 8.38 28.57 8.05 28.84 7.82C29.11 7.59 29.45 7.48 29.86 7.48C30.22 7.48 30.48 7.57 30.64 7.76C30.80 7.95 30.88 8.26 30.88 8.68L30.88 12.60L32.77 12.60L32.77 8.26C32.77 7.57 32.57 7.02 32.17 6.61C31.77 6.21 31.23 6.01 30.56 6.01C29.60 6.01 28.89 6.41 28.43 7.22L28.43 6.16L26.54 6.16L26.54 12.60L28.43 12.60ZM38.98 8.62L35.85 8.62C35.93 8.22 36.12 7.91 36.44 7.69C36.76 7.46 37.11 7.35 37.51 7.35C38.36 7.35 38.85 7.77 38.98 8.62ZM35.84 9.87L40.94 9.87C40.95 9.69 40.96 9.49 40.96 9.25C40.96 8.25 40.65 7.44 40.03 6.85C39.40 6.25 38.56 5.95 37.51 5.95C36.43 5.95 35.56 6.27 34.90 6.92C34.23 7.57 33.89 8.39 33.89 9.38C33.89 10.38 34.21 11.19 34.85 11.81C35.49 12.43 36.38 12.74 37.51 12.74C39.14 12.74 40.26 12.10 40.88 10.82L39.09 10.42C38.80 10.99 38.27 11.27 37.51 11.27C36.55 11.27 36.00 10.80 35.84 9.87ZM43.57 9.38C43.57 8.83 43.75 8.41 44.11 8.11C44.47 7.82 44.95 7.67 45.56 7.67C45.99 7.67 46.42 7.77 46.82 7.96C47.23 8.15 47.51 8.37 47.66 8.62L47.66 6.50C47.04 6.13 46.29 5.95 45.42 5.95C44.26 5.95 43.33 6.26 42.64 6.88C41.94 7.50 41.59 8.33 41.59 9.38C41.59 10.43 41.94 11.26 42.64 11.88C43.33 12.50 44.26 12.81 45.42 12.81C46.41 12.81 47.15 12.63 47.66 12.26L47.66 10.12C47.50 10.39 47.23 10.62 46.85 10.81C46.47 10.99 46.04 11.09 45.56 11.09C44.95 11.09 44.47 10.94 44.11 10.65C43.75 10.35 43.57 9.93 43.57 9.38ZM49.48 3.92L49.48 6.16L48.43 6.16L48.43 7.77L49.48 7.77L49.48 12.60L51.37 12.60L51.37 7.77L52.42 7.77L52.42 6.16L51.37 6.16L51.37 3.92Z"></path></g><!----><!----></svg>