<svg width="277" height="73" viewBox="0 0 277 73" fill="none" xmlns="http://www.w3.org/2000/svg">
<path d="M44.0054 0H46.9731C54.7945 0.443212 62.6162 2.97214 68.7042 7.9622C75.2388 13.1504 79.9822 20.5703 81.6211 28.7411C83.3911 36.599 82.3302 44.9993 78.9263 52.2834C74.6243 61.1947 66.561 68.3279 57.0164 71.2269C53.7859 72.2542 50.4136 72.713 47.0413 73H44.2311C41.7306 72.7079 39.2199 72.4369 36.7826 71.8111C29.1291 70.0067 22.2794 65.4602 17.347 59.422C12.215 53.2482 9.53073 45.3173 9.20508 37.3655C10.2399 37.6366 11.2799 37.8765 12.3253 38.0955C12.9241 45.9481 15.9182 53.7437 21.5178 59.4271C27.4377 65.7832 35.9946 69.5687 44.7039 69.7932C52.8459 70.085 61.1137 67.3842 67.328 62.1177C72.812 57.5969 76.8147 51.2979 78.4008 44.3838C80.6385 35.2277 78.8318 25.1276 73.3687 17.4C69.0981 11.3775 62.8313 6.70033 55.6825 4.61984C46.8313 1.96057 36.8666 2.95649 28.9033 7.71191C28.1154 6.96106 27.3221 6.2154 26.529 5.47499C31.7766 2.21085 37.8489 0.432786 44.0054 0Z" fill="white"/>
<path d="M10.7967 5.53238C16.9898 3.61352 24.202 6.1529 27.7266 11.5705C31.2618 16.7483 31.057 24.0952 27.2224 29.0644C23.7187 33.7833 17.2472 36.0933 11.5321 34.5863C5.19713 33.1941 0.29624 27.2864 0.0441029 20.8624C-0.507446 14.0838 4.17283 7.33651 10.7967 5.53238ZM11.779 8.59318C6.6732 9.96975 2.91216 15.0954 3.26936 20.3566C3.24834 25.5604 7.27726 30.4201 12.3936 31.489C16.8847 32.631 21.9275 30.806 24.6642 27.0986C28.0366 22.7864 27.7949 16.1591 24.0812 12.1232C21.1396 8.68703 16.1126 7.28958 11.779 8.59318Z" fill="white"/>
<path d="M121.298 26.5H117.335C117.101 25.3601 116.691 24.3587 116.105 23.4957C115.529 22.6328 114.826 21.9084 113.995 21.3224C113.175 20.7259 112.264 20.2784 111.263 19.9801C110.261 19.6818 109.217 19.5327 108.131 19.5327C106.149 19.5327 104.354 20.0334 102.745 21.0348C101.147 22.0362 99.8743 23.5117 98.9261 25.4613C97.9886 27.4109 97.5199 29.8026 97.5199 32.6364C97.5199 35.4702 97.9886 37.8619 98.9261 39.8114C99.8743 41.761 101.147 43.2365 102.745 44.2379C104.354 45.2393 106.149 45.7401 108.131 45.7401C109.217 45.7401 110.261 45.5909 111.263 45.2926C112.264 44.9943 113.175 44.5522 113.995 43.9663C114.826 43.3697 115.529 42.6399 116.105 41.777C116.691 40.9034 117.101 39.902 117.335 38.7727H121.298C121 40.4453 120.457 41.9421 119.668 43.2631C118.88 44.5842 117.9 45.7081 116.728 46.6349C115.556 47.5511 114.24 48.2489 112.781 48.7283C111.332 49.2077 109.782 49.4474 108.131 49.4474C105.339 49.4474 102.857 48.7656 100.684 47.402C98.5107 46.0384 96.8008 44.0994 95.5543 41.5852C94.3079 39.071 93.6847 36.0881 93.6847 32.6364C93.6847 29.1847 94.3079 26.2017 95.5543 23.6875C96.8008 21.1733 98.5107 19.2344 100.684 17.8707C102.857 16.5071 105.339 15.8253 108.131 15.8253C109.782 15.8253 111.332 16.065 112.781 16.5444C114.24 17.0238 115.556 17.7269 116.728 18.6538C117.9 19.57 118.88 20.6886 119.668 22.0096C120.457 23.32 121 24.8168 121.298 26.5ZM137.163 49.5114C134.947 49.5114 133.002 48.984 131.33 47.9293C129.668 46.8746 128.368 45.3991 127.431 43.5028C126.504 41.6065 126.04 39.3906 126.04 36.8551C126.04 34.2983 126.504 32.0664 127.431 30.1594C128.368 28.2525 129.668 26.7717 131.33 25.717C133.002 24.6623 134.947 24.1349 137.163 24.1349C139.378 24.1349 141.317 24.6623 142.979 25.717C144.652 26.7717 145.952 28.2525 146.878 30.1594C147.816 32.0664 148.285 34.2983 148.285 36.8551C148.285 39.3906 147.816 41.6065 146.878 43.5028C145.952 45.3991 144.652 46.8746 142.979 47.9293C141.317 48.984 139.378 49.5114 137.163 49.5114ZM137.163 46.1236C138.846 46.1236 140.231 45.6921 141.317 44.8292C142.404 43.9663 143.208 42.8317 143.73 41.4254C144.252 40.0192 144.513 38.4957 144.513 36.8551C144.513 35.2145 144.252 33.6857 143.73 32.2688C143.208 30.8519 142.404 29.7067 141.317 28.8331C140.231 27.9595 138.846 27.5227 137.163 27.5227C135.479 27.5227 134.094 27.9595 133.008 28.8331C131.921 29.7067 131.117 30.8519 130.595 32.2688C130.073 33.6857 129.812 35.2145 129.812 36.8551C129.812 38.4957 130.073 40.0192 130.595 41.4254C131.117 42.8317 131.921 43.9663 133.008 44.8292C134.094 45.6921 135.479 46.1236 137.163 46.1236ZM157.813 34.2344V49H154.042V24.4545H157.685V28.2898H158.005C158.58 27.0433 159.453 26.0419 160.625 25.2855C161.797 24.5185 163.31 24.1349 165.164 24.1349C166.826 24.1349 168.28 24.4759 169.526 25.1577C170.773 25.8288 171.742 26.8516 172.435 28.2259C173.127 29.5895 173.473 31.3153 173.473 33.4034V49H169.702V33.6591C169.702 31.7308 169.201 30.2287 168.2 29.1527C167.199 28.0661 165.824 27.5227 164.077 27.5227C162.873 27.5227 161.797 27.7837 160.849 28.3058C159.912 28.8278 159.171 29.5895 158.628 30.5909C158.085 31.5923 157.813 32.8068 157.813 34.2344ZM184.136 34.2344V49H180.365V24.4545H184.008V28.2898H184.328C184.903 27.0433 185.777 26.0419 186.949 25.2855C188.12 24.5185 189.633 24.1349 191.487 24.1349C193.149 24.1349 194.603 24.4759 195.85 25.1577C197.096 25.8288 198.065 26.8516 198.758 28.2259C199.45 29.5895 199.797 31.3153 199.797 33.4034V49H196.025V33.6591C196.025 31.7308 195.525 30.2287 194.523 29.1527C193.522 28.0661 192.147 27.5227 190.4 27.5227C189.196 27.5227 188.12 27.7837 187.172 28.3058C186.235 28.8278 185.494 29.5895 184.951 30.5909C184.408 31.5923 184.136 32.8068 184.136 34.2344ZM216.979 49.5114C214.614 49.5114 212.574 48.9893 210.859 47.9453C209.154 46.8906 207.839 45.4205 206.912 43.5348C205.996 41.6385 205.537 39.4332 205.537 36.919C205.537 34.4048 205.996 32.1889 206.912 30.2713C207.839 28.343 209.128 26.8409 210.779 25.7649C212.441 24.6783 214.38 24.1349 216.596 24.1349C217.874 24.1349 219.137 24.348 220.383 24.7741C221.629 25.2003 222.764 25.8928 223.787 26.8516C224.809 27.7997 225.624 29.0568 226.232 30.6229C226.839 32.1889 227.143 34.1172 227.143 36.4077V38.0057H208.222V34.7457H223.307C223.307 33.3608 223.03 32.125 222.476 31.0384C221.933 29.9517 221.155 29.0941 220.143 28.4656C219.142 27.837 217.959 27.5227 216.596 27.5227C215.094 27.5227 213.794 27.8956 212.697 28.6413C211.61 29.3764 210.774 30.3352 210.188 31.5178C209.602 32.7003 209.309 33.968 209.309 35.321V37.4943C209.309 39.348 209.628 40.9194 210.268 42.2085C210.917 43.4869 211.818 44.4616 212.968 45.1328C214.119 45.7933 215.456 46.1236 216.979 46.1236C217.97 46.1236 218.865 45.9851 219.664 45.7081C220.474 45.4205 221.171 44.9943 221.757 44.4297C222.343 43.8544 222.796 43.1406 223.116 42.2884L226.759 43.3111C226.376 44.5469 225.731 45.6335 224.825 46.571C223.92 47.4979 222.801 48.2223 221.47 48.7443C220.138 49.2557 218.641 49.5114 216.979 49.5114ZM242.851 49.5114C240.55 49.5114 238.568 48.968 236.906 47.8814C235.244 46.7947 233.966 45.2979 233.071 43.391C232.176 41.484 231.729 39.3054 231.729 36.8551C231.729 34.3622 232.187 32.1623 233.103 30.2553C234.03 28.3377 235.319 26.8409 236.97 25.7649C238.632 24.6783 240.571 24.1349 242.787 24.1349C244.513 24.1349 246.068 24.4545 247.453 25.0938C248.838 25.733 249.973 26.6278 250.857 27.7784C251.741 28.929 252.29 30.2713 252.503 31.8054H248.732C248.444 30.6868 247.805 29.696 246.814 28.8331C245.834 27.9595 244.513 27.5227 242.851 27.5227C241.381 27.5227 240.092 27.9062 238.984 28.6733C237.887 29.4297 237.029 30.5004 236.411 31.8853C235.804 33.2596 235.5 34.8736 235.5 36.7273C235.5 38.6236 235.798 40.2749 236.395 41.6811C237.002 43.0874 237.855 44.1793 238.952 44.957C240.06 45.7347 241.36 46.1236 242.851 46.1236C243.831 46.1236 244.721 45.9531 245.52 45.6122C246.319 45.2713 246.995 44.7812 247.549 44.142C248.103 43.5028 248.497 42.7358 248.732 41.8409H252.503C252.29 43.2898 251.763 44.5948 250.921 45.756C250.09 46.9066 248.987 47.8228 247.613 48.5046C246.249 49.1758 244.662 49.5114 242.851 49.5114ZM268.691 24.4545V27.6506H255.971V24.4545H268.691ZM259.678 18.5739H263.449V41.9688C263.449 43.0341 263.604 43.8331 263.913 44.3658C264.232 44.8878 264.637 45.2393 265.127 45.4205C265.628 45.5909 266.155 45.6761 266.709 45.6761C267.125 45.6761 267.466 45.6548 267.732 45.6122C267.998 45.5589 268.211 45.5163 268.371 45.4844L269.138 48.8722C268.883 48.968 268.526 49.0639 268.068 49.1598C267.61 49.2663 267.029 49.3196 266.326 49.3196C265.26 49.3196 264.216 49.0906 263.194 48.6325C262.182 48.1744 261.34 47.4766 260.669 46.5391C260.008 45.6016 259.678 44.419 259.678 42.9915V18.5739Z" fill="white"/>
</svg>
